<svg xmlns="http://www.w3.org/2000/svg" width="256" height="256"><path fill="#1976D2" fill-opacity=".016" fill-rule="evenodd" d="M0 128.004v128.004l128.25-.254 128.25-.254.254-127.75L257.008 0H0zm.485.496c0 70.4.119 99.053.265 63.672s.146-92.98 0-128S.485 58.1.485 128.5"/><path fill="#1976D2" fill-opacity=".35" fill-rule="evenodd" d="M56.5 1.065C31.745 4.415 10.263 22.66 2.42 47 .877 51.79.61 57.404.349 90.5l-.298 38L8.277 112c8.43-16.906 20.47-41.975 24.015-50 1.093-2.475 3.228-6.3 4.745-8.5 2.344-3.401 2.843-5.349 3.329-13 .595-9.363.941-11.855 2.735-19.7 1.297-5.674 3.698-8.284 4.566-4.964.698 2.666.735 2.666 4.38-.029 3.654-2.701 4.091-2.335 8.883 7.423 3.778 7.694 4.204 7.995 14.512 10.258 1.76.387 5.225 3.031 8.622 6.579C87.189 43.33 90.251 46 90.87 46s2.908 1.611 5.088 3.581c3.05 2.755 5.183 3.75 9.253 4.313 6.746.934 9.215 2.306 10.731 5.965 3.036 7.331-6.322 13.595-19.302 12.92-3.927-.204-7.961-.749-8.963-1.21-1.598-.736-1.784-.42-1.5 2.546L86.5 77.5l6.92.182c5.046.133 7.62.701 9.5 2.099 3.359 2.495 3.804 6.254 1.039 8.756-2.591 2.345-14.03 3.196-20.959 1.558-4.23-.999-4.638-.907-6.797 1.531-2.188 2.471-2.266 3.099-1.662 13.234.496 8.324.298 11.565-.909 14.89-1.498 4.125-1.482 4.25.518 4.25 4.233 0 14.57-3.285 21.088-6.703 12.345-6.472 23.43-19.624 28-33.225 2.1-6.249 2.225-8.479 2.539-45.322L126.108 0 94.304.127C76.812.197 59.8.619 56.5 1.065m75.745 35.107c.439 39.874.647 41.503 6.985 54.658 4.91 10.189 16.855 22.137 27.194 27.201 13.356 6.541 16.494 6.921 55.044 6.681l34.032-.212.263-34.305c.295-38.429.018-40.719-6.554-54.195-4.618-9.469-17.685-23.027-26.709-27.713C207.818.662 207.386.599 167.673.202l-35.827-.358zm50.422-7.505c-.367.366-.667 5.091-.667 10.5V49h-10.465c-9.323 0-10.578.211-11.5 1.934-1.455 2.72-1.327 17.374.165 18.866.785.785 4.933 1.2 12 1.2H183v9.429c0 11.518.724 12.571 8.637 12.571 9.021 0 9.363-.439 9.363-12.035V71h9.066C222.829 71 223 70.857 223 60.165c0-5.484-.449-9.214-1.2-9.965-.77-.77-4.711-1.2-11-1.2H201v-9.3c0-5.9-.439-9.739-1.2-10.5-1.269-1.269-15.941-1.726-17.133-.533M92.441 82.532C94.569 84.141 99 84.53 99 83.107c0-1.199-2.571-2.114-5.832-2.075-2.562.03-2.591.09-.727 1.5M0 144.42V158h4.599c10.526 0 16.229 6.801 15.063 17.963-.79 7.558-2.67 11.783-10.364 23.288C1.83 210.419 1.779 210.957 7.177 222l3.177 6.5.775-7c1.335-12.051 6.012-21.781 13.896-28.904 5.418-4.894 10.477-7.257 20.16-9.415 4.59-1.022 9.29-2.365 10.444-2.982 1.245-.667 3.03-3.681 4.387-7.411 1.259-3.459 3.345-8.664 4.636-11.568S67 155.585 67 155.15c0-.434 1.61-2.671 3.578-4.97 3.072-3.589 4.133-4.18 7.502-4.18 3.551 0 4.257.464 7.438 4.892 2.657 3.698 4.342 5.047 6.907 5.528 4.231.794 10.217 7.156 11.085 11.781 1.033 5.51-.842 8.614-6.795 11.247-8.402 3.715-8.627 4.327-5.709 15.552 1.907 7.335.691 13.837-4.41 23.587-2.51 4.795-4.838 10.187-5.175 11.982-.71 3.785 1.616 12.597 5.184 19.638L89.034 255h37.114l-.337-37.75-.337-37.75-2.629-7.228c-3.611-9.927-7.159-15.688-14.173-23.015-7.071-7.388-13.372-11.621-22.493-15.115l-6.679-2.559-39.75-.371L0 130.84zm182-12.405c-17.154 2.974-35.482 16.975-43.397 33.153-5.972 12.208-6.603 17.549-6.603 55.916v33.954l22.552-.269 22.552-.269 2.443-6c1.344-3.3 2.446-6.473 2.448-7.05.003-.578-2.298-3.909-5.113-7.402-9.056-11.238-13.965-21.008-15.078-30.008-.242-1.955-1.207-2.721-4.703-3.73-7.983-2.304-10.139-6.304-7.991-14.831 1.894-7.524 6.878-11.801 17.542-15.054 9.099-2.775 10.309-3.648 17.655-12.734 4.802-5.939 10.396-8.817 18.384-9.458 10.515-.844 14.458 3.696 10.432 12.013-2.553 5.274-6.247 7.563-14.298 8.86-3.398.547-6.595 1.252-7.104 1.566-1.457.901-3.827 7.239-4.648 12.428l-.749 4.74 17.088.42c9.398.231 18.663.939 20.588 1.572 4.968 1.635 12.815 7.872 17.193 13.665 5.147 6.81 9.088 17.577 7.778 21.248-.925 2.594-.894 2.64.54.79 2.511-3.239 5.507-14.427 6.569-24.535.604-5.747.729-21.449.316-39.75l-.681-30.25-34.608.118c-19.034.064-36.632.468-39.107.897M1 181.5c0 8.525.21 15.5.468 15.5.257 0 2.255-2.368 4.44-5.261 4.431-5.87 6.767-12.912 5.697-17.176-.906-3.612-5.838-8.563-8.528-8.563C1.064 166 1 166.475 1 181.5m152.667 8.167c-.367.366-.653 1.379-.637 2.25.025 1.3.221 1.257 1.092-.242 1.077-1.852.765-3.228-.455-2.008m-88.875 39.836c.692 8.345-.551 13.937-4.351 19.585C58.548 251.9 57 254.381 57 254.6c0 .22 4.087.4 9.082.4h9.081l-2.011-3.254c-1.89-3.058-5.23-14.657-6.611-22.961-.968-5.817-2.248-5.292-1.749.718m139.309 5.789c-2.332 4.816-6.228 9.249-13.601 15.474l-5 4.221 5.236.007c4.25.005 6.228-.631 10.5-3.373l5.264-3.379v-8.619c0-4.74-.072-8.62-.161-8.621-.088-.001-1.096 1.929-2.238 4.29"/><path fill="#1976D2" fill-opacity=".037" fill-rule="evenodd" d="M116.813.683c.721.289 1.584.253 1.916-.079s-.258-.568-1.312-.525c-1.165.048-1.402.285-.604.604m4.937-.021c.688.278 1.813.278 2.5 0 .688-.277.125-.504-1.25-.504s-1.937.227-1.25.504m19.549.083c4.84.184 12.49.183 17-.002 4.511-.185.551-.335-8.799-.334s-13.04.153-8.201.336m34.49-.004c3.459.196 8.859.195 12-.003S188.1.38 181.5.382s-9.17.164-5.711.359M236.5 20c.995 1.1 2.035 2 2.31 2s-.315-.9-1.31-2-2.035-2-2.31-2 .315.9 1.31 2m-101.577 2.417c-.042 1.146-.236 2.932-.431 3.97-.195 1.037-.657 11.162-1.026 22.5-.615 18.908-.498 21.303 1.419 28.949 2.923 11.66 7.313 19.351 16.115 28.23 8.31 8.384 15.211 12.683 25.415 15.835 6.377 1.97 9.046 2.099 43.32 2.099h36.525l-.758-25.25c-.416-13.888-.812-29.596-.88-34.908-.067-5.311-.453-9.136-.857-8.5-.421.665-.741.04-.75-1.466-.008-1.444-.703-4.574-1.543-6.956-.841-2.382-1.296-4.937-1.012-5.677.285-.741.146-1.118-.307-.838-.983.608-4.403-6.191-3.692-7.342.271-.439-.469-.746-1.645-.681s-2.325-.557-2.553-1.382c-.369-1.333-.297-1.333.646 0 .583.825 1.067.993 1.076.372.024-1.803-2.773-3.622-5.572-3.622-2.031 0-2.476-.399-2.091-1.874.27-1.031.082-2.126-.416-2.434S235 23.385 235 24s-.445.843-.989.507c-.568-.351-.733.054-.388.952.442 1.152.16 1.395-1.069.923-.918-.352-1.432-1.257-1.143-2.011s.128-1.371-.359-1.371-1.082.563-1.323 1.25c-.312.892-1.1.678-2.755-.75-1.275-1.1-2.013-1.476-1.64-.835.798 1.37-1.102 2.199-3.573 1.559-.975-.253-1.44-.95-1.058-1.588.435-.725.133-.693-.835.09-1.197.968-1.794.968-2.838 0-.816-.755-1.08-.79-.688-.09.377.674-.364 1.326-1.823 1.605-1.523.291-2.217.08-1.825-.555.385-.623-.019-.775-1.03-.387-.984.377-1.682.14-1.709-.58-.025-.671-.663.131-1.419 1.781-.802 1.751-1.407 2.316-1.455 1.357-.116-2.346-3.267-3.503-8.081-2.968-1.585.176-.704 2.395 1.75 4.409 2.027 1.664 2.25 2.73 2.25 10.775V47l8.75.191 8.75.192-9.5.653-9.5.653 10.264-.095c8.948-.082 10.336.13 10.818 1.656.304.962.939 1.75 1.411 1.75 1.385 0 .845 13.247-.663 16.25-.827 1.646-2.198 2.75-3.415 2.75-1.118 0-1.775.418-1.459.928.331.536-1.973.891-5.441.84-3.308-.048-6.015-.461-6.015-.917s-1.066-.74-2.369-.633c-2.275.189-2.376.533-2.553 8.739C201.82 91.859 200.939 93 192 93s-9.82-1.141-10.078-13.039l-.185-8.539-9.118.07c-5.016.039-10.161-.367-11.435-.901-2.241-.941-2.305-1.305-2-11.412l.316-10.441 11-.033 11-.032-10-.643-10-.643 9.361-.193 9.362-.194-.362-8.715c-.35-8.453-.286-8.753 2.139-9.985 1.48-.752 1.888-1.305 1-1.356-1.01-.057-.847-.365.5-.944 1.1-.473 1.389-.891.643-.93-.871-.045-1.118-.696-.691-1.82.511-1.342.391-1.477-.515-.578-.649.644-1.846.916-2.66.604-.813-.312-1.877.061-2.363.828-.569.9-.889.974-.899.208-.008-.653-.802-1.172-1.765-1.152-.963.019-4.338-.254-7.5-.608-3.351-.374-5.75-.253-5.75.291 0 .514-2.043.906-4.541.873-3.289-.045-4.403-.418-4.043-1.357.273-.712-.003-1.604-.614-1.981-.648-.401-.831-.234-.44.398.369.597.244 1.349-.277 1.671s-1.23.127-1.577-.433q-.63-1.02-2.819.147c-2.049 1.092-2.093 1.048-.689-.689.825-1.021 1.012-1.564.416-1.207-.596.356-2.621.909-4.5 1.227s-4.316.784-5.416 1.035-1.437.196-.75-.12c1.725-.792 1.57-2.074-.25-2.074-.829 0-1.534.932-1.577 2.084m20.709-.203c.632 1.022 3.368 1.022 3.368 0 0-.432-.867-.785-1.927-.785-1.059 0-1.708.353-1.441.785m8.451 1.069c.23.156 1.215.894 2.19 1.641 1.543 1.183 1.691 1.146 1.143-.283-.347-.902-1.332-1.641-2.19-1.641s-1.372.127-1.143.283M238 24.378c0 .207.787.995 1.75 1.75 1.586 1.243 1.621 1.208.378-.378-1.307-1.666-2.128-2.195-2.128-1.372M39.195 39.5c.02 1.65.244 2.204.498 1.231s.237-2.323-.037-3-.481.119-.461 1.769M82 37.378c0 .207.787.995 1.75 1.75 1.586 1.243 1.621 1.208.378-.378C82.821 37.084 82 36.555 82 37.378m5.733 1.222c-.364.365-.197 1.533.372 2.596.808 1.509 1.73 1.808 4.215 1.363 3.049-.545 3.077-.521.68.588-2.086.966-2.208 1.228-.738 1.581.969.233 1.462.909 1.096 1.502-.378.611-.203.792.403.418.588-.364 2.349.415 3.913 1.731s4.587 2.628 6.719 2.915 4.211 1.065 4.62 1.727c.546.884.847.899 1.127.058.265-.795.995-.675 2.372.389 1.982 1.532 1.982 1.535-.012.9-1.997-.636-1.997-.635-.006.912 1.461 1.136 2.187 1.239 2.72.385.431-.692.992.156 1.381 2.085.36 1.788 1.049 3.25 1.53 3.25 1.349 0 1.038 1.694-.616 3.348-.967.967-1.104 1.62-.39 1.858.65.217.363.966-.701 1.831-1.459 1.185-1.641 1.196-.955.058.578-.96.476-1.175-.325-.68-.644.398-.924 1.122-.622 1.61.906 1.466-4.206 4.208-6.492 3.483-1.438-.457-1.99-.252-1.799.667.164.792-.831 1.452-2.475 1.641-1.513.174-2.75.764-2.75 1.309 0 .546-.45.715-1 .375s-1-.111-1 .508c0 .694.817.868 2.125.452q2.127-.675 1.448.421c-.411.666-.118.882.746.55 1.298-.498 2.041.361 2.652 3.069.125.55.601 1.701 1.06 2.558 1.088 2.032-4.392 8.124-6.559 7.293-.824-.316-2.139-.043-2.922.608-1.418 1.176-9.111 1.048-11.106-.185-.572-.353-1.63-.277-2.352.169-.723.447-2.22.575-3.329.285-1.292-.338-2.372.108-3.006 1.242-.814 1.455-1.165 1.526-1.968.4-.741-1.038-.835-.929-.387.452.325 1.003.165 2.618-.355 3.589-.626 1.171-.454 3.871.512 8.011.801 3.434 1.177 6.697.835 7.25s-1.21 3.235-1.929 5.959c-1.19 4.514-1.158 4.913.364 4.499.919-.251 4.146-1 7.171-1.665 9.163-2.015 18.743-7.599 26.5-15.446 6.857-6.936 13.138-16.678 11.971-18.567-.324-.523-.086-.952.529-.952s.84-.45.5-1-.111-1 .508-1c.672 0 .87-.808.492-2-.349-1.1-.232-2 .259-2 .492 0 .744-1.463.56-3.25-.272-2.645-.16-2.877.603-1.25.846 1.805.944 1.731 1.008-.75.038-1.513-.375-2.75-.919-2.75s-.965-1.013-.937-2.25-.009-4.828-.083-7.98c-.074-3.151.15-6.189.497-6.75.346-.561.305-1.547-.093-2.19-.398-.644-.762-2.998-.809-5.232-.102-4.819-2.915-6.294-4.617-2.422-.906 2.059-.965 1.954-.521-.926.452-2.926.256-3.25-1.973-3.25-1.361 0-2.681.112-2.932.25s-1.083-.606-1.848-1.653c-1.361-1.861-4.311-1.403-3.142.488.322.521 1.074.646 1.671.277.647-.401.797-.206.371.483-.392.635-.252 1.155.311 1.155s1.545 1.013 2.182 2.25l1.159 2.25-2.183-2.272c-1.201-1.25-2.606-2.011-3.124-1.691-.517.319-.94.104-.94-.478S106.564 42 106.031 42s-.719.65-.414 1.444c.378.985-.081 1.397-1.444 1.294-1.799-.135-1.857-.351-.585-2.167 1.914-2.733 1.789-4.091-.194-2.108-1.183 1.183-1.95 1.321-2.911.523-.92-.764-1.499-.769-1.963-.018-.362.585-1.125.776-1.696.423-.669-.413-.556-.946.319-1.501.908-.575.963-.864.166-.875-.655-.008-1.474.442-1.819 1.001-.346.559-.956.814-1.357.566-.401-.247-1.377-.049-2.169.44-1.013.626-1.756.3-2.504-1.097-.585-1.093-1.362-1.689-1.727-1.325m11.08 5.083c.721.289 1.584.253 1.916-.079s-.258-.568-1.312-.525c-1.165.048-1.402.285-.604.604m-65.188 4.115c-.271.439-.093 1.445.397 2.237.671 1.086.848.889.721-.798-.183-2.427-.364-2.66-1.118-1.439m61.375.58c0 .207.787.995 1.75 1.75 1.586 1.243 1.621 1.208.378-.378C95.821 48.084 95 47.555 95 48.378m-58.571 2.68c0 1.379.317 1.568 1.285.764.707-.587 1.286-1.189 1.286-1.337 0-.149-.579-.493-1.286-.764-.759-.292-1.285.256-1.285 1.337m-15.156 5.964c-.083 1.112.271 1.76.788 1.441 1.136-.703 1.258-3.463.152-3.463-.433 0-.856.91-.94 2.022m3.131.478c.076 1.584-.476 1.958-2.654 1.797-1.847-.136-2.75.281-2.75 1.27 0 1.083-.726 1.315-2.75.878-1.512-.327-3.27-.635-3.905-.686s-.925-.69-.645-1.42.982-1.036 1.559-.679c.653.404.748.161.252-.642-.607-.982-1.181-.785-2.404.824-1.134 1.492-2.269 1.939-3.857 1.519-1.395-.368-2.25-.147-2.25.581 0 .647.52.855 1.155.463.731-.453.882-.274.41.489-.569.921-1.074.929-2.154.032-1.166-.967-1.424-.584-1.488 2.202-.042 1.854-.268 4.272-.503 5.372-.236 1.1-.667 14.15-.959 29l-.531 27 6.066-11.795c3.336-6.488 5.8-12.225 5.476-12.75-.325-.525-.09-.955.521-.955 1.088 0 3.654-5.77 3.225-7.25-.12-.412.259-.75.841-.75s.781-.45.441-1-.172-1 .374-1c1.242 0 2.643-3.632 3.011-7.809.063-.72.613-1.001 1.222-.625.746.461.886-.012.431-1.446-.465-1.465-.188-2.317.887-2.73.86-.33 1.315-1.002 1.01-1.495-.304-.492-.05-.895.565-.895s.865-.409.556-.91c-.794-1.284.471-4.191 1.537-3.532.486.3.633-.109.326-.909s.329-3.196 1.415-5.323c1.085-2.128 2.129-4.759 2.32-5.847s.706-2.245 1.147-2.57-1.177-.549-3.596-.5c-3.733.077-4.382.393-4.301 2.091M28.5 57c-.34.55.11 1 1 1s1.34-.45 1-1-.79-1-1-1-.66.45-1 1M20 62c0 .55.477 1 1.059 1s.781-.45.441-1-.816-1-1.059-1-.441.45-.441 1m235.079 8.583c.048 1.165.285 1.402.604.605.289-.722.253-1.585-.079-1.917s-.568.258-.525 1.312m-168 4c.048 1.165.285 1.402.604.605.289-.722.253-1.585-.079-1.917s-.568.258-.525 1.312M17.25 131.748c9.763.164 25.738.164 35.5 0 9.763-.163 1.775-.297-17.75-.297s-27.512.134-17.75.297m192.5-.086c.688.278 1.813.278 2.5 0 .688-.277.125-.504-1.25-.504s-1.937.227-1.25.504m39 .078 6.25.355-.21 21.203-.211 21.202L254 159c-.319-8.525-.674-14.086-.79-12.357-.123 1.846-.887 3.403-1.851 3.773-1.383.53-1.439.386-.359-.916s1.024-1.446-.359-.916c-.902.347-1.641 1.018-1.641 1.492 0 .473-.749.574-1.664.223-.992-.381-1.414-.233-1.044.364.341.552-.01 1.004-.78 1.004-.771 0-1.373-.263-1.338-.584s.01-1.22-.056-2c-.133-1.591-1.618-.521-1.618 1.167 0 .596-.562 1.271-1.25 1.5s-1.25-.322-1.25-1.226-.457-1.359-1.016-1.014c-.559.346-.698 1.16-.308 1.809.458.764.145.725-.887-.111-1.303-1.055-1.689-1.055-2.113 0-.329.822-.547.655-.597-.458-.043-.963-.515-1.75-1.048-1.75-.532 0-.679.753-.326 1.674.479 1.248.234 1.516-.967 1.056-.885-.34-1.811-.08-2.059.576-.322.857-.835.767-1.814-.318-.751-.832-1.254-1.321-1.119-1.087.257.442-5.39 4.099-6.329 4.099-.294 0-.311-.362-.038-.804s-.858-1.316-2.514-1.941c-2.32-.876-2.799-.863-2.085.054 1.27 1.634-.5 7.982-1.972 7.072-.645-.398-.839-.24-.459.374.812 1.315-.274 4.41-1.32 3.763-.419-.259-1.609.523-2.645 1.738-1.861 2.182-1.859 2.191.116.727 1.849-1.371 1.897-1.352.637.256-.75.956-1.722 1.517-2.16 1.247-.438-.271-1.55-.203-2.471.15-1.342.515-1.41.82-.34 1.54.841.566-.144.696-2.666.35-3.063-.419-3.531-.315-2 .444 1.501.744.753.877-3 .535-3.834-.35-4.417-.241-2.5.471 2.445.907 2.434.924-.501.762-4.011-.22-5.413.802-4.818 3.513.354 1.619.225 1.872-.462.904-1.267-1.786-2.503 2.865-1.657 6.236.33 1.315.114 2.691-.481 3.059-3.202 1.979.224 2.55 15.293 2.55 11.777 0 17.533.409 20.5 1.456 2.269.8 4.126 1.291 4.126 1.09 0-.559 6.055 4.573 9.466 8.022 5.039 5.096 8.553 10.88 10.971 18.057l2.294 6.812 1.55-5.468c.852-3.008 2.036-7.944 2.63-10.969 1.171-5.96 2.167-58.247 1.319-69.25l-.52-6.75-6.605.193-6.605.192zm-172.734.76c-.01.653-12.84.905-37.016.726l-37-.274-.092 3.274c-.051 1.801-.164 7.096-.25 11.767l-.158 8.493 4 .568c9.874 1.403 14.49 6.726 14.496 16.718.005 7.654-3.105 15.083-11.432 27.311-6.355 9.331-6.357 9.355-1.635 19.417 3.133 6.678 2.741 7.102 5.049-5.459 1.342-7.306 2.753-10.442 7.844-17.437 5.28-7.257 13.337-12.02 24.708-14.611 5.194-1.183 10.292-2.903 11.329-3.822 1.036-.919 3.82-6.621 6.185-12.671s5.68-13.025 7.365-15.5 2.997-4.725 2.913-5c-.306-1.002 7.768-1.022 9.633-.024 1.055.565 2.905 2.781 4.11 4.926 2.014 3.583 5.391 5.517 9.461 5.42 2.035-.049 7.655 8.609 8.193 12.623.732 5.454-1.546 8.646-8.302 11.634-5.279 2.335-5.417 2.5-5.417 6.474 0 2.243.498 5.01 1.107 6.148s1.078 5.046 1.042 8.684c-.059 5.922-.607 7.681-5.233 16.789-4.815 9.481-5.138 10.572-4.741 16 .277 3.785 1.602 8.374 3.784 13.098l3.357 7.272 18.092-.272 18.092-.272.264-32.497c.309-38.017-.473-44.63-6.799-57.503-4.08-8.304-12.433-18.947-14.074-17.933-.517.32-.817-.014-.666-.743.151-.728-.3-1.207-1.003-1.065s-1.537-.417-1.855-1.244c-.317-.827-.957-1.268-1.422-.981s-1.305-.338-1.867-1.388c-1.137-2.126-4.607-3.964-3.556-1.885.345.682-.014.458-.797-.495-.782-.954-1.716-1.442-2.074-1.084s-.651.078-.651-.622c0-.741-.65-1.025-1.552-.678-.923.354-1.294.178-.916-.434.409-.662-.373-.807-2.198-.407-1.927.422-2.403.317-1.489-.328 1.031-.727.758-1.096-1.171-1.58-1.383-.347-3.271-.341-4.195.014-.967.371-2.056.052-2.565-.751-.486-.768-.89-.946-.898-.396m123.431 11.415c.311.503 0 1.142-.691 1.421-.691.278-.188.542 1.116.585 1.999.067 2.177-.158 1.128-1.421-1.36-1.638-2.46-2.053-1.553-.585m-5.952 1.636c-.547.853-1.98 1.621-3.183 1.708s-2.395.952-2.649 1.923c-.435 1.662-.278 1.67 2.687.137 2.84-1.468 3.02-1.471 1.827-.033s-1.018 1.48 1.774.426c2.577-.972 2.799-1.287 1.323-1.87-.976-.386-1.211-.733-.524-.772.688-.038 1.25-.745 1.25-1.57 0-1.944-1.241-1.919-2.505.051m-12.02.49c-.354.572-1.618.801-2.809.509s-1.603-.273-.916.043c.688.315 1.25 1.266 1.25 2.113 0 1.265-.271 1.314-1.523.275-1.293-1.073-1.416-.978-.813.628.626 1.666.511 1.729-.966.528-.922-.75-1.384-1.875-1.027-2.5.371-.65.259-.78-.261-.304-.5.459-.91 1.307-.91 1.886 0 1.97-4.138 2.682-6.989 1.202-3.101-1.609-4.786-1.891-2.511-.421 1.251.808 1.168.992-.5 1.103-1.1.074-2.321.086-2.714.027s-.438.614-.1 1.494c.511 1.331.099 1.488-2.441.93-1.801-.396-3.323-.237-3.709.387-.36.583-.108 1.059.56 1.059.745 0 .5.789-.634 2.042l-1.847 2.041-1.165-2.177c-.761-1.421-1.408-1.782-1.867-1.041-.386.625-.112 1.142.608 1.15 1.744.021-1.169 1.948-2.976 1.97-.976.011-1.028-.467-.215-1.985 1.824-3.409.4-2.203-2.405 2.036-1.469 2.219-3.098 3.771-3.621 3.448s-.717.022-.431.766c.7 1.825-3.41 10.95-4.6 10.215-.519-.321-.943-.106-.943.476s.563 1.073 1.25 1.091c.724.018.463.627-.621 1.449-1.377 1.042-1.697 2.114-1.21 4.052.4 1.595.281 2.4-.302 2.039-1.27-.785-1.651 9.469-1.632 43.928l.015 28 22 .231 22 .231 2.706-6.639 2.705-6.639-2.176-3.092c-1.197-1.701-4.18-5.567-6.63-8.592-5.027-6.209-9.738-15.853-10.709-21.926-.358-2.241-1.03-4.074-1.492-4.074-.463 0-.582-.675-.266-1.5.425-1.105-.135-1.5-2.127-1.5-3.422 0-7.997-2.671-9.553-5.578-.659-1.232-1.009-3.855-.779-5.831.231-1.975.028-3.591-.451-3.591s-.164-.707.701-1.571c.864-.865 1.571-2.081 1.571-2.703s1.463-2.718 3.25-4.657c2.246-2.437 2.478-2.915.75-1.548l-2.5 1.979 1.884-2.226c1.036-1.225 2.237-2.008 2.669-1.741s1.385-.081 2.116-.774c.732-.692 1.894-1.304 2.581-1.359 3.537-.283 4.227-.52 5.647-1.94.847-.847 3.131-1.665 5.077-1.818 3.901-.307 9.713-4.99 8.882-7.156-.271-.706.058-1.624.73-2.039.834-.515.965-.339.414.553q-.809 1.31.362.585c.644-.398.9-1.162.568-1.698-.776-1.256 1.509-4.042 2.708-3.302.501.31.788-.032.637-.761-.151-.728.364-1.186 1.144-1.018 1.063.23 1.147-.022.335-1-.596-.718-1.01-1.756-.919-2.306s-.882-1.148-2.161-1.33c-1.53-.216-2.14-.815-1.782-1.75.633-1.65.024-1.902-.917-.379m18.338 1.642c.721.289 1.584.253 1.916-.079s-.258-.568-1.312-.525c-1.165.048-1.402.285-.604.604m12.943-.019c.691.279.959.988.596 1.576-.394.637-.188.777.51.345 1.377-.85.55-2.62-1.171-2.506-.852.056-.834.223.065.585m-32.173 1.202c-.431.697-.513 1.537-.183 1.867.895.895 1.871-.421 1.387-1.871-.338-1.016-.574-1.016-1.204.004M108 150.378c0 .207.787.995 1.75 1.75 1.586 1.243 1.621 1.208.378-.378-1.307-1.666-2.128-2.195-2.128-1.372m122.566 4.52c-1.339.524-1.567.983-.742 1.493.655.405 1.895.033 2.755-.827 1.677-1.678 1.077-1.876-2.013-.666M1 181.687v14.687l3.003-2.876c7.073-6.777 9.415-19.171 4.542-24.043-1.35-1.35-3.6-2.455-5-2.455H1zm152.079 9.896c.048 1.165.285 1.402.604.605.289-.722.253-1.585-.079-1.917s-.568.258-.525 1.312m-88 41.545c-.083 8.014-1.419 12.493-5.138 17.22-1.844 2.344-1.993 3.006-.841 3.735 1.423.901 14.9 1.306 14.9.448 0-.258-.902-2.199-2.004-4.313s-2.916-8.091-4.032-13.281c-2.694-12.53-2.793-12.661-2.885-3.809m130.565 13.122-7.856 7.75h4.41c3.15 0 5.719-.83 8.987-2.902 2.517-1.596 4.849-3.345 5.184-3.885.612-.991-1.116-7.285-2.255-8.213-.338-.275-4.149 2.988-8.47 7.25"/><path fill="#1976D2" fill-opacity=".172" fill-rule="evenodd" d="M167.762 48.707c1.244.239 3.044.23 4-.02s-.062-.446-2.262-.435-2.982.216-1.738.455m7.507-.014c.973.254 2.323.237 3-.037s-.119-.481-1.769-.461-2.204.244-1.231.498m27.544-.01c.721.289 1.584.253 1.916-.079s-.258-.568-1.312-.525c-1.165.048-1.402.285-.604.604M135.496 75.2c.125 4.104.687 7.361 1.306 7.567.597.199.809 1.082.472 1.962-.38.99-.208 1.348.451.941 1.288-.796 2.427 1.77 1.666 3.753-.314.819.35 1.903 1.563 2.553 1.16.62 2.001 1.667 1.868 2.326-.393 1.949 2.184 5.813 3.383 5.071.657-.406.822-.225.406.448-1.921 3.107 15.415 16.799 26.889 21.238 5.831 2.255 7.081 2.331 44.355 2.696l38.356.375-.586-8.815c-.323-4.848-.875-14.102-1.229-20.565-.471-8.612-.988-11.75-1.936-11.75-.711 0-1.52.563-1.798 1.25-.345.855-.529.776-.583-.25-.059-1.119-1.327-1.5-4.994-1.5-4.147 0-4.733.225-3.75 1.437.949 1.17.84 1.31-.585.75a97 97 0 0 0-3.5-1.281c-1.473-.501-1.513-.424-.25.484 1.066.767 1.129 1.084.219 1.095-.705.008-1.54-.657-1.855-1.479-.316-.822-.984-1.241-1.485-.931s-.677.943-.391 1.406c.607.981-2.099.741-3.117-.277-.378-.378-1.375-.128-2.216.555-1.272 1.032-1.426.965-.917-.396.46-1.229.15-1.516-1.244-1.151-1.089.285-1.633 1.064-1.318 1.887.695 1.811-.683 1.785-3.322-.064-2.499-1.75-3.844-.869-2.095 1.373 1.096 1.406 1.038 1.433-.498.229-.956-.75-1.492-1.763-1.191-2.25s-.116-.887-.928-.887c-.811 0-1.702.563-1.98 1.25-.403 1-.52 1-.583 0-.043-.687-1.231-1.25-2.638-1.25-1.451 0-2.292.433-1.941 1 .878 1.421-.859 1.241-2.342-.242-1.497-1.497-3.118.482-3.143 3.837-.03 4.098-3.164 5.553-12.18 5.655-7.994.089-8.386-.012-9.587-2.469-.689-1.409-1.337-3.849-1.44-5.422-.23-3.493-2.315-6.965-3.263-5.432-1.083 1.752-3.461 1.232-3.093-.677.292-1.519-.506-1.75-6.057-1.75-3.517 0-6.394-.337-6.395-.75 0-.412-.562-.637-1.25-.5-.77.154-1.178-.711-1.063-2.25.102-1.375-.039-1.963-.315-1.306-.276.656-1.221.917-2.101.58-1.055-.405-1.355-.22-.883.545.482.78.156.943-1 .5-1.256-.483-1.497-.304-.898.666.557.9.434 1.086-.384.58-.816-.504-.882-1.13-.206-1.945.717-.863.442-1.244-.973-1.351-1.083-.081-1.767.181-1.518.584s-.523.805-1.716.895c-1.507.114-1.763-.087-.838-.658.952-.589.594-.962-1.263-1.317-1.524-.291-2.605-.038-2.622.616-.017.611-.489.324-1.05-.639s-1.56-1.743-2.22-1.735c-.743.01-.629.402.3 1.031 1.099.743.698.841-1.5.364-1.65-.357-3.5-1.272-4.112-2.032-.837-1.041-1.057.4-.892 5.822m116.583 10.383c.048 1.165.285 1.402.604.605.289-.722.253-1.585-.079-1.917s-.568.258-.525 1.312m-52.207 6.167c-1.243 1.586-1.208 1.621.378.378.963-.755 1.75-1.543 1.75-1.75 0-.823-.821-.294-2.128 1.372M3.264 131.718c1.52.229 3.77.223 5-.014s-.014-.425-2.764-.418-3.756.202-2.236.432M255.328 145.5c.005 3.85.185 5.302.402 3.228.216-2.075.213-5.225-.008-7s-.398-.078-.394 3.772M105 146.378c0 .207.787.995 1.75 1.75 1.586 1.243 1.621 1.208.378-.378-1.307-1.666-2.128-2.195-2.128-1.372M255.435 178c0 14.025.14 19.763.312 12.75.172-7.012.172-18.487 0-25.5-.172-7.012-.312-1.275-.312 12.75M15 160.378c0 .207.787.995 1.75 1.75 1.586 1.243 1.621 1.208.378-.378-1.307-1.666-2.128-2.195-2.128-1.372m100.573 4.296c.59.454 1.328 1.521 1.64 2.371.805 2.194-3.221 2.324-4.815.156-1.147-1.561-1.236-1.536-1.074.299.191 2.169-3.206 2.939-4.559 1.035-.404-.569-.741.592-.75 2.58-.019 4.605-2.828 8.193-8.048 10.281-2.591 1.037-3.81 2.049-3.354 2.786q.717 1.16-.949.519c-.915-.351-1.708-.315-1.763.08-.526 3.829-.347 8.947.28 7.961.56-.883.793-.904.804-.074.008.643.282 1.993.609 3 .495 1.524.413 1.58-.484.332-.933-1.297-1.081-1.263-1.095.25-.008.963.403 1.75.914 1.75s.848 1.573.75 3.496c-.098 1.922-.517 3.497-.929 3.5-.412.002-.75.831-.75 1.843 0 1.011-2.294 6.523-5.097 12.25-4.621 9.438-5.061 10.927-4.703 15.929.244 3.412 1.596 8.086 3.544 12.25 3.626 7.748.593 6.904 25.578 7.115l13.822.117-.322-38.097c-.271-32.066-.559-38.383-1.822-39.896-.825-.989-2.415-4.062-3.532-6.83-1.118-2.768-2.693-5.211-3.5-5.431-.932-.253-1.076-.097-.395.428M24.367 171.5c-1.532 3.025-3.141 5.5-3.576 5.5s-.784.787-.776 1.75c.014 1.513.162 1.547 1.095.25.897-1.248.979-1.192.484.332-.327 1.007-.594 2.046-.594 2.309 0 .262-.526.152-1.17-.246-.787-.486-.961-.178-.531.941.354.922.154 1.664-.447 1.664-.61 0-.845.919-.536 2.099.301 1.154.307 1.857.012 1.562s-3.639 4.172-7.432 9.927C6.347 204.49 4 209.041 4 210.96c0 1.599 1.21 5.699 2.689 9.109 2.801 6.458 4.074 6.333 4.241-.415.126-5.115 3.09-13.375 6.934-19.322 2.073-3.207 3.852-6.282 3.953-6.832s.614-1 1.14-1 1.685-.9 2.574-2c.89-1.1 1.285-1.361.879-.579-.47.903.193.721 1.822-.5 1.409-1.057 2.36-2.253 2.113-2.66-.247-.406.323-.442 1.267-.08 1.157.444 1.483.281 1-.5-.454-.734-.195-.958.707-.612.787.302 1.708-.198 2.061-1.118.468-1.218 1.327-1.49 3.213-1.017 1.505.378 2.334.257 1.997-.289-.318-.515.117-1.202.968-1.529.885-.34 1.285-.171.935.395-.336.544.064.989.889.989s1.789-.468 2.143-1.041c.354-.572 1.562-.749 2.684-.393 1.333.423 1.81.274 1.375-.43-.739-1.197 3.727-2.68 5.246-1.741 1.038.642 2.507-.908 3.503-3.697.384-1.073.244-1.555-.344-1.191-.544.336-.989-.348-.989-1.519 0-1.172-.675-2.806-1.5-3.631s-1.5-1.033-1.5-.463c0 .619-1.703.868-4.219.617-2.618-.26-4.516.038-5 .785-.601.927-.973.907-1.614-.085-.621-.961-1.511-1.031-3.5-.275-2.84 1.08-3.473.278-1.417-1.798.782-.79.156-.699-1.67.244-2.001 1.033-3.472 1.211-4.677.566-.967-.517-2.544-.639-3.504-.271-1.344.516-1.598.285-1.104-1.003 1.366-3.56-.271-1.42-2.928 3.826m-20.521-3.829c-1.238.328-1.822 2.122-2.322 7.134-.582 5.834-.467 21.195.16 21.195 1.071 0 7.264-9.694 6.862-10.741-.288-.75-.125-1.117.361-.817s1.156-.163 1.488-1.03c1.008-2.626.678-7.412-.512-7.412-.648 0-.918-1.036-.644-2.47.293-1.531.083-2.229-.553-1.836-.607.375-.784.005-.435-.906q.593-1.541-1.08-1.414c-.919.069-1.559-.436-1.421-1.124.138-.687.138-1.198 0-1.134s-.994.313-1.904.555M104.232 171c0 1.925.206 2.713.457 1.75.252-.963.252-2.537 0-3.5-.251-.963-.457-.175-.457 1.75m89.518 16.743c3.988.189 10.512.189 14.5 0 3.988-.19.725-.346-7.25-.346s-11.238.156-7.25.346m60.329 19.84c.048 1.165.285 1.402.604.605.289-.722.253-1.585-.079-1.917s-.568.258-.525 1.312M139.35 224.465c2.066 1.566 1.4 3.76-.876 2.887-.805-.309-1.217-.959-.916-1.445.3-.486-.138-.622-.974-.301-.837.321-1.461.879-1.388 1.239.072.36-.172 1.78-.544 3.155s-1.023 7.363-1.446 13.307l-.769 10.807 22.282-.192c21.779-.188 22.889-.351 22.365-3.276-.269-1.499 1.035-4.691 1.738-4.256 1.033.639.627-5.481-.413-6.233-.5-.361-1.408-1.557-2.018-2.657s-1.622-2.056-2.25-2.125-1.591-.181-2.141-.25-1-1.34-1-2.825c0-2.1-.267-2.433-1.2-1.5-1.451 1.451-3.165 1.6-2.3.2.34-.55-.069-1-.91-1-.84 0-1.39-.562-1.223-1.25.168-.687.117-.913-.114-.502-.23.412-1.506.476-2.836.142-1.575-.396-2.417-.178-2.417.624 0 .928-.336.952-1.369.095-1.437-1.193-4.266-1.091-6.381.229-1.698 1.059-1.578.133.214-1.659 1.286-1.286 1.225-1.527-.501-1.978-1.081-.283-1.714-.106-1.405.392.935 1.514-.776 1.016-2.901-.843-1.101-.963-1.672-1.187-1.27-.5s.269 1.25-.297 1.25c-.565 0-.774.787-.464 1.75.459 1.427.373 1.482-.466.298-.565-.799-.77-1.87-.455-2.38s-.048-.72-.807-.467-1.979-.139-2.71-.871c-.732-.731-1.861-1.316-2.509-1.298-.649.017-.346.662.671 1.433m-74.09 9.085c-.069 7.382-1.699 12.657-5.332 17.258l-2.124 2.692 6.348.552c3.491.304 7.096.374 8.009.157 1.526-.364 1.513-.653-.157-3.552-1.001-1.737-2.588-6.532-3.528-10.657-3.212-14.098-3.146-13.965-3.216-6.45"/></svg>